<svg width="86" height="322" viewBox="0 0 86 322" fill="none" xmlns="http://www.w3.org/2000/svg">
<circle r="5.37566" transform="matrix(1 0 0 -1 5.37566 5.37556)" fill="#87A5C0"/>
<circle r="5.37566" transform="matrix(1 0 0 -1 5.37566 24.127)" fill="#87A5C0"/>
<circle r="5.37566" transform="matrix(1 0 0 -1 5.37566 42.8782)" fill="#87A5C0"/>
<circle r="5.37566" transform="matrix(1 0 0 -1 5.37566 61.6297)" fill="#87A5C0"/>
<circle r="5.37566" transform="matrix(1 0 0 -1 5.37566 80.3809)" fill="#87A5C0"/>
<circle r="5.37566" transform="matrix(1 0 0 -1 5.37566 99.1322)" fill="#87A5C0"/>
<circle r="5.37566" transform="matrix(1 0 0 -1 24.1266 5.37556)" fill="#87A5C0"/>
<circle r="5.37566" transform="matrix(1 0 0 -1 24.1266 24.127)" fill="#87A5C0"/>
<circle r="5.37566" transform="matrix(1 0 0 -1 24.1266 42.8782)" fill="#87A5C0"/>
<circle r="5.37566" transform="matrix(1 0 0 -1 24.1266 61.6297)" fill="#87A5C0"/>
<circle r="5.37566" transform="matrix(1 0 0 -1 24.1266 80.3809)" fill="#87A5C0"/>
<circle r="5.37566" transform="matrix(1 0 0 -1 24.1266 99.1322)" fill="#87A5C0"/>
<circle r="5.37566" transform="matrix(1 0 0 -1 42.8786 5.37556)" fill="#87A5C0"/>
<circle r="5.37566" transform="matrix(1 0 0 -1 42.8786 24.127)" fill="#87A5C0"/>
<circle r="5.37566" transform="matrix(1 0 0 -1 42.8786 42.8782)" fill="#87A5C0"/>
<circle r="5.37566" transform="matrix(1 0 0 -1 42.8786 61.6297)" fill="#87A5C0"/>
<circle r="5.37566" transform="matrix(1 0 0 -1 42.8786 80.3809)" fill="#87A5C0"/>
<circle r="5.37566" transform="matrix(1 0 0 -1 42.8786 99.1322)" fill="#87A5C0"/>
<circle r="5.37566" transform="matrix(1 0 0 -1 61.6296 5.37556)" fill="#87A5C0"/>
<circle r="5.37566" transform="matrix(1 0 0 -1 61.6296 24.127)" fill="#87A5C0"/>
<circle r="5.37566" transform="matrix(1 0 0 -1 61.6296 42.8782)" fill="#87A5C0"/>
<circle r="5.37566" transform="matrix(1 0 0 -1 61.6296 61.6297)" fill="#87A5C0"/>
<circle r="5.37566" transform="matrix(1 0 0 -1 61.6296 80.3809)" fill="#87A5C0"/>
<circle r="5.37566" transform="matrix(1 0 0 -1 61.6296 99.1322)" fill="#87A5C0"/>
<circle r="5.37566" transform="matrix(1 0 0 -1 80.3805 5.37556)" fill="#87A5C0"/>
<circle r="5.37566" transform="matrix(1 0 0 -1 80.3805 24.127)" fill="#87A5C0"/>
<circle r="5.37566" transform="matrix(1 0 0 -1 80.3805 42.8782)" fill="#87A5C0"/>
<circle r="5.37566" transform="matrix(1 0 0 -1 80.3805 61.6297)" fill="#87A5C0"/>
<circle r="5.37566" transform="matrix(1 0 0 -1 80.3805 80.3809)" fill="#87A5C0"/>
<circle r="5.37566" transform="matrix(1 0 0 -1 80.3805 99.1322)" fill="#87A5C0"/>
<circle r="5.37566" transform="matrix(1 0 0 -1 5.37566 221.883)" fill="#87A5C0"/>
<circle r="5.37566" transform="matrix(1 0 0 -1 5.37566 240.635)" fill="#87A5C0"/>
<circle r="5.37566" transform="matrix(1 0 0 -1 5.37566 259.386)" fill="#87A5C0"/>
<circle r="5.37566" transform="matrix(1 0 0 -1 5.37566 278.138)" fill="#87A5C0"/>
<circle r="5.37566" transform="matrix(1 0 0 -1 5.37566 296.889)" fill="#87A5C0"/>
<circle r="5.37566" transform="matrix(1 0 0 -1 5.37566 315.64)" fill="#87A5C0"/>
<circle r="5.37566" transform="matrix(1 0 0 -1 24.1266 221.883)" fill="#87A5C0"/>
<circle r="5.37566" transform="matrix(1 0 0 -1 24.1266 240.635)" fill="#87A5C0"/>
<circle r="5.37566" transform="matrix(1 0 0 -1 24.1266 259.386)" fill="#87A5C0"/>
<circle r="5.37566" transform="matrix(1 0 0 -1 24.1266 278.138)" fill="#87A5C0"/>
<circle r="5.37566" transform="matrix(1 0 0 -1 24.1266 296.889)" fill="#87A5C0"/>
<circle r="5.37566" transform="matrix(1 0 0 -1 24.1266 315.64)" fill="#87A5C0"/>
<circle r="5.37566" transform="matrix(1 0 0 -1 42.8786 221.883)" fill="#87A5C0"/>
<circle r="5.37566" transform="matrix(1 0 0 -1 42.8786 240.635)" fill="#87A5C0"/>
<circle r="5.37566" transform="matrix(1 0 0 -1 42.8786 259.386)" fill="#87A5C0"/>
<circle r="5.37566" transform="matrix(1 0 0 -1 42.8786 278.138)" fill="#87A5C0"/>
<circle r="5.37566" transform="matrix(1 0 0 -1 42.8786 296.889)" fill="#87A5C0"/>
<circle r="5.37566" transform="matrix(1 0 0 -1 42.8786 315.64)" fill="#87A5C0"/>
<circle r="5.37566" transform="matrix(1 0 0 -1 61.6296 221.883)" fill="#87A5C0"/>
<circle r="5.37566" transform="matrix(1 0 0 -1 61.6296 240.635)" fill="#87A5C0"/>
<circle r="5.37566" transform="matrix(1 0 0 -1 61.6296 259.386)" fill="#87A5C0"/>
<circle r="5.37566" transform="matrix(1 0 0 -1 61.6296 278.138)" fill="#87A5C0"/>
<circle r="5.37566" transform="matrix(1 0 0 -1 61.6296 296.889)" fill="#87A5C0"/>
<circle r="5.37566" transform="matrix(1 0 0 -1 61.6296 315.64)" fill="#87A5C0"/>
<circle r="5.37566" transform="matrix(1 0 0 -1 80.3805 221.883)" fill="#87A5C0"/>
<circle r="5.37566" transform="matrix(1 0 0 -1 80.3805 240.635)" fill="#87A5C0"/>
<circle r="5.37566" transform="matrix(1 0 0 -1 80.3805 259.386)" fill="#87A5C0"/>
<circle r="5.37566" transform="matrix(1 0 0 -1 80.3805 278.138)" fill="#87A5C0"/>
<circle r="5.37566" transform="matrix(1 0 0 -1 80.3805 296.889)" fill="#87A5C0"/>
<circle r="5.37566" transform="matrix(1 0 0 -1 80.3805 315.64)" fill="#87A5C0"/>
</svg>
